<svg width="28" height="28" viewBox="0 0 28 28" fill="none" xmlns="http://www.w3.org/2000/svg">
<g clip-path="url(#clip0)">
<path d="M17.4 18.1C16.5 17.6 15.5 17.4 14.4 17.4H14L13.7 18.7C13.6 19.1 13.3 19.4 12.9 19.4C12.4 19.4 12.1 19.8 12.1 20.2V20.7C12.1 21.1 12.4 21.4 12.8 21.4H13.8C14 21.4 14.2 21.3 14.4 21.2L15.6 20.6C15.9 20.5 16.1 20.2 16.1 19.9C16.2 19.3 16.6 18.3 18 18.3L17.4 18.1ZM4.99999 11.6V11.4L4.49999 11.6C3.49999 12.1 2.59999 12.8 1.69999 13.6L0.499994 14.8C0.0999939 15.2 -0.100006 15.6 -0.100006 16.1V16.2C-0.100006 16.8 0.399994 17.3 0.999994 17.3H1.79999C2.19999 17.3 2.49999 17.1 2.69999 16.7L3.09999 15.8C3.29999 15.5 3.59999 15.2 3.99999 15.2H6.99999C5.99999 14.4 5.29999 13 4.99999 11.6ZM27 23.3C26.5 23.3 26 22.9 26 22.4C26 21.4 27 20.4 27 17.4C27 15 25.5 13 23.2 12.3L18.6 10.9C15.6 10 13 8.20004 11 5.80004L9.99999 4.50004L10.9 3.20004C11.3 2.60004 10.7 1.90004 10.1 2.10004L8.99999 2.40004H6.59999C6.19999 2.40004 5.89999 2.50004 5.59999 2.80004L5.39999 3.00004C5.09999 3.30004 4.79999 3.40004 4.39999 3.40004C3.69999 3.40004 3.19999 4.10004 3.29999 4.80004L3.59999 5.90004C3.79999 6.80004 4.59999 7.40004 5.49999 7.40004H5.99999V9.80004C5.99999 12 7.09999 14.1 8.99999 15.4V16.6C8.99999 17.2 8.89999 17.7 8.59999 18.2L8.29999 18.8C8.09999 19.2 7.69999 19.4 7.29999 19.4C6.59999 19.4 5.99999 20 5.99999 20.7V20.8C5.99999 21.1 6.29999 21.4 6.59999 21.4H8.99999C9.59999 21.4 10.1 21 10.3 20.5L11.9 16.4H15.3C16.9 16.4 18.4 17.2 19.3 18.6L19.9 19.4V21.3C19.9 22.5 18.9 23.4 17.8 23.4C17.3 23.4 16.9 23.8 16.9 24.3V24.8C16.9 25.1 17.2 25.4 17.5 25.4H19.3C20.3 25.4 21.2 24.9 21.8 24.1L22.6 22.9C22.8 22.6 22.9 22.2 22.9 21.8V20.8C22.9 20.5 23 20.3 23.2 20.1C23.6 19.7 23.9 19 23.9 18.4V15.4C24.9 15.4 24.9 16.4 24.9 17.4C24.9 18.4 23.9 21.4 23.9 22.4C23.9 23.4 23.9 25.4 25.9 25.4H26.8C27.4 25.4 27.9 24.9 27.9 24.3C28 23.8 27.6 23.3 27 23.3Z" fill="#D9D9D9"/>
</g>
<defs>
<clipPath id="clip0">
<rect width="28" height="28" fill="white"/>
</clipPath>
</defs>
</svg>
