<svg width="28" height="28" viewBox="0 0 28 28" fill="none" xmlns="http://www.w3.org/2000/svg">
<path fill-rule="evenodd" clip-rule="evenodd" d="M9.0115 9.9885C9.0115 12.7391 11.2494 14.977 14 14.977C16.7506 14.977 18.9885 12.7391 18.9885 9.9885C18.9885 7.23787 16.7506 5 14 5C11.2494 5 9.0115 7.23787 9.0115 9.9885ZM10.8767 17.7405C10.7514 17.7405 10.6242 17.7142 10.5029 17.6587C8.81146 16.8864 7.45805 15.5902 6.60023 14.0153H3.42574C2.92771 14.0153 2.52422 13.6117 2.52422 13.1138C2.52422 12.6159 2.92771 12.2123 3.42574 12.2123H5.87236C5.75405 11.7819 5.66938 11.34 5.62072 10.8901H0.901521C0.40349 10.8901 0 10.4865 0 9.98859C0 9.49067 0.40349 9.08707 0.901521 9.08707H6.45684L6.47364 9.08691C6.97167 9.08691 7.37516 9.49051 7.37516 9.98843C7.37516 12.5763 8.89687 14.9432 11.2519 16.0184C11.7048 16.2252 11.9044 16.76 11.6975 17.2129C11.546 17.5447 11.2188 17.7405 10.8767 17.7405ZM22.3803 10.8901H27.0985C27.5964 10.8901 28 10.4865 28 9.98853C28 9.49061 27.5965 9.08701 27.0985 9.08701H21.5266C21.0285 9.08701 20.625 9.49061 20.625 9.98853L20.6251 9.99504C20.6218 13.6453 17.6511 16.6141 14 16.6141C13.709 16.6141 13.4356 16.7547 13.2665 16.9916L10.3902 21.0183C10.1007 21.4234 10.1946 21.9865 10.5997 22.2759C10.7587 22.3892 10.9415 22.4438 11.123 22.4438C11.4044 22.4438 11.6816 22.3124 11.8572 22.0665L14.4733 18.4041C17.4636 18.2377 20.043 16.5052 21.4027 14.0153H24.5742C25.0722 14.0153 25.4758 13.6117 25.4758 13.1138C25.4758 12.6159 25.0723 12.2123 24.5742 12.2123H22.1306C22.2478 11.7841 22.332 11.3424 22.3803 10.8901Z" fill="#D9D9D9"/>
</svg>
