<svg width="28" height="28" viewBox="0 0 28 28" fill="none" xmlns="http://www.w3.org/2000/svg">
<path fill-rule="evenodd" clip-rule="evenodd" d="M25.8533 3.14678L24.8533 2.14679C24.7013 1.99379 24.4693 1.9568 24.2764 2.0528L20.2763 4.05278C20.1073 4.13777 20.0003 4.31078 20.0003 4.49978V5.79279L14.9983 10.7968L17.2343 12.9718L22.2073 7.99981H23.5003C23.6893 7.99981 23.8624 7.8928 23.9473 7.72381L25.9474 3.72381C26.0444 3.53176 26.0063 3.29875 25.8533 3.14678ZM25.2283 22.1419L12.1513 9.42187C11.8042 9.08386 11.6433 8.58988 11.7202 8.10088C12.0092 6.27786 11.5132 4.66586 10.2883 3.44186C9.33223 2.48583 8.10424 1.98582 6.89425 2.00082C5.79822 2.02482 4.75421 2.4128 3.87422 3.12381C3.74724 3.22679 3.67824 3.38382 3.68921 3.54681C3.70121 3.70979 3.79121 3.8568 3.93122 3.9408L6.98725 5.77381C6.89627 6.6928 6.35327 7.4998 5.52123 7.92983L2.7862 6.28882C2.6332 6.19784 2.42522 6.20384 2.26922 6.28882C2.11823 6.37184 2.01923 6.52583 2.0092 6.69884C1.92618 8.09287 2.40722 9.41686 3.36122 10.4288C4.30323 11.4279 5.62923 11.9999 7.00024 11.9999C7.22322 11.9999 7.54826 11.9399 8.02324 11.8129C8.54426 11.6719 9.10625 11.8259 9.48425 12.2149L22.1473 25.232C22.6433 25.7279 23.3013 26 24.0003 26C25.1034 26 26.0004 25.103 26.0004 23.999C26.0003 23.3 25.7283 22.6419 25.2283 22.1419ZM10.0863 14.5859C10.1823 14.5859 10.2763 14.5759 10.3683 14.5589L13.5203 17.7989C13.5189 17.8092 13.5175 17.8194 13.516 17.8297C13.5082 17.8864 13.5002 17.9433 13.5002 18.0009C13.5002 18.1349 13.4462 18.2629 13.3502 18.3569C13.2443 18.4709 7.07122 25.134 7.07122 25.134C6.50825 25.697 5.77723 26 5.00022 26C4.23021 26 3.4802 25.689 2.93922 25.148L2.84622 25.051C2.31123 24.516 2.00021 23.766 2.00021 23C2.00021 22.2299 2.31123 21.4799 2.85325 20.939L9.75126 14.7149C9.84328 14.6319 9.96229 14.5859 10.0863 14.5859Z" fill="#D9D9D9"/>
</svg>
