<svg width="28" height="28" viewBox="0 0 28 28" fill="none" xmlns="http://www.w3.org/2000/svg">
<g clip-path="url(#clip0)">
<path d="M25.2239 18.637H24.108C24.1375 18.4787 24.204 18.2877 24.3398 18.0772C24.7579 17.4293 24.8474 16.857 24.9262 16.3521C24.9759 16.034 25.0229 15.7335 25.1507 15.3868C25.2638 15.0796 25.4815 14.8302 25.7045 14.6401L26.4759 16.5416L28 15.9232L25.242 9.10339L24.572 9.23898C24.4955 9.25444 22.6857 9.64218 21.554 11.7378C20.728 13.2673 18.8684 14.4549 16.6059 14.9308L16.155 13.2764L15.3508 13.5118C14.0227 13.9005 13.2505 14.2507 12.0622 14.9529C12.0557 14.9613 12.0491 14.97 12.0427 14.9783L8.91873 19.1734H6.35459C6.35459 19.1734 4.91791 17.2149 4.09705 16.1223C3.63946 16.2968 3.23726 16.5503 2.8868 16.8849C2.0002 17.7314 1.63928 19.1321 1.92438 20.4134L1.27137e-05 21.6932L2.27532 25.8081H3.37904L4.23181 24.8484C5.09248 23.8799 6.32915 23.3245 7.62476 23.3245C8.71768 23.3245 9.77594 23.7206 10.6047 24.44C11.5479 25.2587 12.465 25.7082 13.3276 25.804C14.3179 25.9141 14.9151 25.6718 15.7146 25.4154C16.3204 25.2211 16.7833 25.0216 17.5775 25.1246C17.913 25.1681 18.2185 25.1888 18.4983 25.1888C20.0678 25.1888 20.8201 24.5343 21.4128 23.5617C21.6175 23.2258 21.9036 23.0326 22.1759 22.9468C22.8891 22.722 23.5445 23.5584 23.5445 23.5584L25.0985 22.7946C25.375 23.5555 25.5154 24.3514 25.5154 25.1638H27.1602C27.1602 24.0662 26.9535 22.9929 26.546 21.9737L25.2239 18.637Z" fill="#D9D9D9"/>
<path d="M7.18814 17.5284H8.08538L10.7356 13.9799C11.8543 12.5163 13.3864 10.5118 13.3864 7.91857C13.3864 4.74821 10.8071 2.16895 7.63679 2.16895C4.46643 2.16895 1.88711 4.74821 1.88711 7.91857C1.88711 10.5118 3.41919 12.5163 4.53793 13.9799L7.18814 17.5284ZM4.89902 7.91857C4.89902 6.40897 6.12719 5.1808 7.63679 5.1808C9.14639 5.1808 10.3746 6.40897 10.3746 7.91857C10.3746 9.42817 9.14639 10.6563 7.63679 10.6563C6.12719 10.6563 4.89902 9.42822 4.89902 7.91857Z" fill="#D9D9D9"/>
<path d="M8.65003 8.33866C8.88122 7.78091 8.61649 7.14134 8.05874 6.91015C7.50098 6.67896 6.86142 6.94369 6.63023 7.50145C6.39903 8.0592 6.66377 8.69877 7.22152 8.92996C7.77928 9.16115 8.41884 8.89642 8.65003 8.33866Z" fill="#D9D9D9"/>
</g>
<defs>
<clipPath id="clip0">
<rect width="28" height="28" fill="white"/>
</clipPath>
</defs>
</svg>
