<svg width="28" height="28" viewBox="0 0 28 28" fill="none" xmlns="http://www.w3.org/2000/svg">
<path fill-rule="evenodd" clip-rule="evenodd" d="M19.0848 9.4024C18.6491 9.02039 18.0224 9.02912 17.6628 9.1401C17.8984 8.85086 18.4469 8.61371 18.6087 8.58493C18.7318 8.63108 19.0848 8.99389 19.0848 9.40236L19.0848 9.4024ZM20.476 7.82051C20.1895 6.28765 16.6271 7.30329 14.833 6.6522C14.7986 7.09905 15.3853 7.81506 15.9465 8.08006C14.9872 8.91255 14.126 10.5899 13.9523 12.6391C13.779 10.5899 12.9178 8.91255 11.9585 8.08006C12.5197 7.81506 13.1069 7.09905 13.072 6.6522C11.278 7.30329 7.71552 6.28765 7.42846 7.82051C7.36808 8.1449 7.52416 8.63933 7.69282 8.78144C7.72294 8.67863 7.88046 8.34232 8.37704 8.26692C10.8869 7.8877 12.9823 11.7559 11.0909 13.3199C11.0621 13.3437 11.0782 13.3876 11.1173 13.3876H16.7881C16.8267 13.3876 16.843 13.3437 16.8147 13.3199C14.9226 11.7559 17.0181 7.8877 19.5279 8.26692C20.025 8.34232 20.1819 8.67863 20.2122 8.7814C20.3808 8.63933 20.5369 8.14494 20.476 7.82047V7.82051ZM21.0865 4.30231C21.0414 4.1575 22.513 4.15387 22.513 5.07494C22.513 5.69228 21.6328 5.98466 21.6328 6.62527C21.6328 6.92363 21.9537 7.14249 22.0522 7.14249C21.8255 6.11398 22.763 6.6522 23.0161 6.84456C22.5131 5.46145 23.6456 5.47019 23.5341 4.836C23.4565 4.39277 22.4722 4.52667 22.1159 4.30231C21.4837 3.90436 20.7358 2.35587 20.2429 3.90436C21.1618 4.75746 20.6271 6.01299 19.4607 6.01299C19.4607 6.01299 19.4541 6.1971 19.4648 6.21173C20.8561 6.14362 21.3411 5.12113 21.0865 4.30231H21.0865ZM4.855 6.84456C5.10822 6.6522 6.04557 6.11398 5.81942 7.14249C5.91739 7.14249 6.23837 6.92363 6.23837 6.62527C6.23837 5.98466 5.35808 5.69228 5.35808 5.07494C5.35808 4.15383 6.82973 4.1575 6.78463 4.30231C6.53053 5.12109 7.01558 6.14367 8.40677 6.21173C8.41699 6.1971 8.41048 6.01299 8.41048 6.01299C7.24453 6.01299 6.70984 4.75737 7.62825 3.90436C7.13534 2.35587 6.38746 3.90436 5.75529 4.30231C5.39903 4.52672 4.41465 4.39277 4.33707 4.836C4.226 5.47019 5.35803 5.4615 4.85495 6.84456H4.855ZM8.80533 9.40236C9.24148 9.02034 9.86816 9.02908 10.2273 9.14006C9.99268 8.85082 9.44319 8.61366 9.28196 8.58489C9.15884 8.63104 8.80538 8.99384 8.80538 9.40231L8.80533 9.40236ZM14.6142 0.827465L13.9355 0L13.2569 0.827465L13.9356 1.69833L14.6143 0.827465H14.6142ZM18.4884 3.32955L18.0057 2.74147L17.5236 3.32955L18.0057 3.90432L18.4884 3.32951V3.32955ZM22.403 20.3275L21.7912 19.68L21.1794 20.3275L21.7912 20.8954L22.403 20.3274V20.3275ZM10.348 3.32946L9.86532 2.74138L9.38316 3.32946L9.86532 3.90428L10.348 3.32946H10.348ZM8.96556 6.21164H10.7656C12.279 6.21164 12.96 5.28276 13.1658 4.47721H14.7057C14.9115 5.2828 15.592 6.21169 17.106 6.21169H18.906C18.906 6.21169 19.2209 5.78448 19.2998 5.57296C19.5842 4.81172 19.2209 4.45669 18.6909 4.45669L18.0057 5.07765L17.3205 4.45669C16.7905 4.45669 16.4272 4.81172 16.7115 5.57296C16.7478 5.67032 16.8347 5.81326 16.9168 5.93891C16.2781 5.85115 15.4629 5.41395 15.284 4.47721C15.284 4.47721 15.7559 3.72746 15.8744 3.42407C16.3 2.33304 15.7565 1.88702 14.9617 1.88702L13.9355 3.09331L12.9094 1.88702C12.1146 1.88702 11.5711 2.33299 11.9971 3.42407C12.1151 3.7275 12.5875 4.47725 12.5875 4.47725C12.4082 5.414 11.593 5.8512 10.9543 5.93895C11.037 5.8133 11.1234 5.67032 11.1596 5.573C11.4434 4.81177 11.0811 4.45673 10.5505 4.45673L9.86541 5.07769L9.18027 4.45673C8.64982 4.45673 8.28745 4.81177 8.57132 5.573C8.65026 5.78453 8.96569 6.21173 8.96569 6.21173L8.96556 6.21164ZM27.5759 11.7915C27.2283 11.9674 25.19 12.9223 22.5789 12.5691C22.606 12.4445 22.6289 12.3191 22.6477 12.1931C24.3855 11.9852 25.7981 11.6905 26.6984 11.1897C27.7245 10.6186 28.1732 9.25518 27.6553 8.24082C27.6419 8.21523 27.6047 8.21069 27.5861 8.23208C27.3023 8.55883 25.5176 10.5002 22.7058 11.1038C22.6986 10.9582 22.6853 10.8129 22.6659 10.6684C24.0315 9.89387 25.3648 9.00148 25.9998 8.1855C26.9595 6.95179 26.8712 5.37824 25.958 4.57588C25.9485 4.56774 25.936 4.56409 25.9236 4.56584C25.9112 4.5676 25.9002 4.5746 25.8934 4.58505C25.6045 5.06158 22.9001 9.43283 19.9308 11.3199C19.8945 11.343 19.858 11.3657 19.8212 11.388C19.7361 11.4396 19.7269 11.5502 19.7994 11.6159C20.1416 11.9262 20.3544 12.358 20.3544 12.8373C20.3544 13.6707 19.712 14.3638 18.8628 14.5141C18.4313 14.5977 17.8083 14.5735 17.21 14.3757C17.1831 14.367 17.1552 14.3848 17.1552 14.4118V17.0514C17.1552 17.0938 17.2198 17.1043 17.2351 17.0636C17.5988 16.1001 18.6876 15.8953 19.1638 15.8953C19.3352 16.9252 19.6413 17.7783 20.039 18.2375C20.6864 18.9836 21.7437 18.9731 22.2023 18.4572C22.2098 18.4487 22.2131 18.4372 22.2111 18.4259C22.2091 18.4147 22.202 18.405 22.192 18.3996C21.9226 18.2448 20.3813 17.2985 20.0728 15.7478C20.1946 15.7057 20.3134 15.6582 20.4273 15.6019C20.9248 16.4254 21.649 17.1587 22.2319 17.4388C23.2112 17.9085 24.1077 17.68 24.5053 16.9924C24.5197 16.9682 24.5021 16.938 24.4728 16.9353C23.8671 16.8868 22.0081 16.3541 21.2165 15.056C21.3071 14.9728 21.3958 14.886 21.4785 14.7937C22.3067 15.4242 23.4779 15.9816 24.3163 16.0954C25.2974 16.2288 26.409 15.9159 26.436 14.775C26.4364 14.7521 26.416 14.7334 26.3919 14.7348C26.043 14.7558 23.7338 14.8563 22.0884 13.9118C22.1456 13.8032 22.1989 13.6925 22.2482 13.5801C22.2482 13.5801 24.7344 14.1678 25.9124 13.973C27.083 13.7798 27.7687 12.9071 27.6363 11.8215C27.6326 11.7945 27.601 11.7785 27.5759 11.7913L27.5759 11.7915ZM5.62282 13.5802C5.67231 13.6927 5.72575 13.8033 5.78305 13.912C4.13821 14.856 1.82997 14.7563 1.47974 14.7349C1.45511 14.7335 1.43468 14.7531 1.43512 14.7755C1.46262 15.916 2.57374 16.2289 3.55475 16.0956C4.39283 15.9818 5.56436 15.4243 6.39257 14.7938C6.47574 14.8861 6.56402 14.9729 6.65453 15.0561C5.86256 16.3541 4.004 16.8869 3.39823 16.9353C3.36898 16.938 3.35178 16.9682 3.36575 16.9924C3.7634 17.6801 4.65993 17.9085 5.63963 17.4388C6.22217 17.1587 6.94634 16.4254 7.44388 15.6021C7.55809 15.6582 7.67701 15.7058 7.79825 15.7478C7.48981 17.2986 5.94852 18.2448 5.67906 18.3996C5.66911 18.4051 5.66218 18.4148 5.66019 18.426C5.65821 18.4372 5.66139 18.4487 5.66884 18.4573C6.12735 18.9732 7.18511 18.9836 7.83257 18.2375C8.2303 17.7783 8.53591 16.9252 8.70732 15.8954C9.1839 15.8954 10.2723 16.1001 10.636 17.0637C10.6518 17.1044 10.7163 17.0938 10.7163 17.0514V14.4118C10.7163 14.3848 10.688 14.367 10.6611 14.3757C10.0628 14.5735 9.43987 14.5978 9.00878 14.5141C8.15918 14.3638 7.51674 13.6707 7.51674 12.8373C7.51674 12.3579 7.72993 11.9257 8.07182 11.6155C8.14473 11.5501 8.13499 11.4395 8.05043 11.3879C8.0133 11.3657 7.97645 11.343 7.93988 11.3198C4.97248 9.43375 2.26939 5.06569 1.97814 4.58588C1.96461 4.56348 1.93213 4.55894 1.91213 4.57627C1.00027 5.37907 0.91156 6.95218 1.87127 8.18541C2.50628 9.0014 3.83941 9.89378 5.2047 10.6683C5.18544 10.8128 5.17228 10.958 5.16524 11.1037C2.35579 10.5006 0.572462 8.56227 0.285843 8.23335C0.266807 8.21095 0.228649 8.21554 0.215683 8.24112C-0.301237 9.25593 0.147444 10.6184 1.17268 11.1896C2.07293 11.6903 3.48555 11.985 5.22335 12.1929C5.24212 12.319 5.26504 12.4444 5.29207 12.569C2.68376 12.9217 0.646333 11.9691 0.296102 11.7918C0.270082 11.7785 0.238473 11.795 0.235242 11.8224C0.103392 12.908 0.788486 13.7798 1.95911 13.973C3.13667 14.1678 5.62282 13.5801 5.62282 13.5801V13.5802ZM21.7911 21.7292L20.8853 21.0165C20.5239 21.2317 20.2582 21.5736 20.155 21.9742C19.6102 22.0505 18.1246 21.7206 18.269 21.5018C19.8972 19.2117 18.6518 17.8483 17.1551 17.9242V19.4622C17.1551 19.9561 16.724 20.3563 16.1931 20.3563H15.1596C14.4181 20.3563 13.9355 21.1016 13.9355 21.1016C13.9355 21.1016 13.4529 20.3563 12.7115 20.3563H11.6779C11.1466 20.3563 10.7165 19.9561 10.7165 19.4622V17.9242C9.21974 17.8484 7.97337 19.2118 9.60206 21.5019C9.74513 21.7184 8.21821 22.0652 7.50194 21.9775C7.31334 21.7819 7.04108 21.6586 6.73634 21.6586C6.6068 21.6586 6.47829 21.6817 6.35682 21.7267C6.35682 21.7267 3.54231 19.062 3.49075 19.0359L3.51397 18.982C3.6742 18.6823 3.42897 18.3556 3.27385 18.3784C3.45403 18.1623 3.46246 17.216 2.46276 16.9972C2.49201 17.1872 2.50685 17.5752 2.50685 17.5752C2.50685 17.5752 1.73531 17.158 1.34789 17.518C1.00743 17.9211 1.47987 18.6521 1.47987 18.6521C1.47987 18.6521 1.08502 18.6617 0.890386 18.6452C1.17657 19.613 2.13628 19.5444 2.34392 19.3535C2.33038 19.5074 2.67747 19.7267 2.97147 19.5508L3.10061 19.4882C3.1234 19.5188 5.86456 22.1086 5.86456 22.1086C5.73865 22.2955 5.67875 22.5249 5.72005 22.7693C5.7851 23.1513 6.10338 23.468 6.50984 23.5502C6.79685 23.6078 7.06675 23.552 7.28321 23.4254L8.00882 24.099C8.07344 24.1575 8.16075 24.194 8.25824 24.1871C8.43572 24.1752 8.56857 24.0313 8.55512 23.8664C8.54953 23.7919 8.51146 23.728 8.45894 23.6795C8.44733 23.6667 7.71989 22.9914 7.71989 22.9914C8.31998 22.5705 9.43812 22.2741 10.3662 22.2741C10.5293 22.2741 10.6059 22.1361 10.5497 22.0008C10.1293 20.9896 11.0333 20.2572 11.9684 20.8535C12.3763 21.1135 12.7906 21.6257 13.1028 22.4801C11.5685 22.8516 9.6421 23.875 9.25235 24.9922C9.1023 25.4236 9.59796 26.0116 10.2 26.13C10.2106 26.1323 10.2218 26.1303 10.2309 26.1244C10.2401 26.1184 10.2465 26.1091 10.2487 26.0984C10.5633 24.4306 12.3568 23.1878 13.29 22.9767C13.3369 23.1024 13.3216 23.0617 13.3685 23.1869C12.3521 23.6676 11.3664 24.6814 11.0849 25.8867C10.9557 26.4387 11.5712 26.9363 12.0794 27.0725C12.105 27.0793 12.1301 27.0615 12.1315 27.0368C12.2281 25.5126 12.9012 24.2181 13.5041 23.6292C13.5206 23.7443 13.533 23.86 13.5413 23.976C13.5413 23.976 12.924 25.6963 12.924 26.9514C12.924 27.5353 13.7917 27.9429 13.9199 28C14.0801 27.9429 14.9474 27.5353 14.9474 26.9514C14.9474 25.6962 14.3301 23.976 14.3301 23.976C14.3385 23.86 14.3511 23.7443 14.3677 23.6292C14.9702 24.2181 15.6437 25.5121 15.7399 27.0363C15.7413 27.061 15.7669 27.0793 15.7919 27.0725C16.3006 26.9363 16.9157 26.4388 16.7869 25.8868C16.5049 24.6815 15.5197 23.6676 14.5033 23.187C14.5497 23.0618 14.5344 23.1024 14.5813 22.9767C15.5151 23.1878 17.3081 24.4306 17.6226 26.0984C17.6249 26.109 17.6313 26.1183 17.6405 26.1243C17.6496 26.1302 17.6608 26.1322 17.6714 26.1299C18.273 26.0116 18.7695 25.4235 18.6186 24.9923C18.2298 23.875 16.3029 22.8517 14.7686 22.4801C15.0812 21.6257 15.4955 21.1135 15.9034 20.8535C16.838 20.2573 17.742 20.9897 17.3216 22.0009C17.2654 22.1361 17.3415 22.2741 17.5051 22.2741C18.5549 22.2741 19.8481 22.6533 20.3599 23.1619C20.687 23.6526 21.2914 23.9665 21.9733 23.8993C22.7481 23.8235 23.3799 23.2413 23.4672 22.5217C23.5434 21.8912 23.2173 21.3251 22.6975 21.0166L21.7912 21.7295L21.7911 21.7292ZM15.1145 17.1359C15.4373 17.0163 15.9432 17.1131 15.926 17.5791C15.9218 17.6846 16.0701 17.6846 16.0807 17.5768C16.1773 16.8791 15.7058 16.6781 15.2125 16.7599C15.1512 16.52 15.1011 16.3103 15.0439 16.1024C14.9984 15.9343 14.9817 15.6185 15.1763 15.6185C15.2813 15.6185 15.2391 15.9123 15.2293 16.0388C15.2205 16.1499 15.2604 16.2171 15.3506 16.2202C15.4068 16.2225 15.477 16.1508 15.5187 16.1032C15.8012 15.7839 15.8667 15.2895 15.5359 15.0511C15.2591 14.8509 14.566 14.9999 14.3755 15.2849C14.3468 15.1775 14.2092 15.0003 14.1432 14.923C14.0792 14.8477 14.0625 14.7961 14.1512 14.7298C14.193 14.6978 14.3194 14.5722 14.3194 14.4424C14.3194 14.3657 14.2599 14.224 14.0708 14.224C13.9217 14.224 13.7559 14.3273 13.7559 14.5575C13.7559 14.6088 13.7684 14.6636 13.8014 14.7226C13.7071 14.707 13.4512 14.7134 13.3197 14.7458L15.1374 19.7339C15.6577 19.4771 16.039 19.0705 16.039 18.6342C16.039 18.2622 15.4913 18.3856 15.2251 18.6757C15.1397 18.2042 15.0635 17.7688 14.9803 17.3347C14.9576 17.215 15.0185 17.1721 15.1146 17.1359L15.1145 17.1359ZM12.5443 13.7475L12.9261 14.8085C12.5991 14.8862 12.0733 15.1246 12.0733 15.4403C12.0733 15.8608 12.817 16.1344 13.2471 16.1015C13.2257 16.1975 13.2504 16.2829 13.3173 16.361C13.1612 16.361 12.8667 16.4336 12.7701 16.5378C12.542 16.3254 12.1852 16.2481 12.0157 16.3775C11.8452 16.5077 11.8401 16.7284 12.018 16.9779C12.142 17.1506 12.1885 17.321 12.0491 17.5211C12.5675 17.5211 12.3766 16.8472 12.5796 16.8472C12.5531 16.9779 12.5694 17.1291 12.6284 17.2968C12.6674 17.4082 12.6674 17.4873 12.6005 17.5947C12.4333 17.862 12.1732 18.4761 12.2085 19.0312C12.0385 19.0303 11.9521 18.9886 12.012 18.7566C12.0343 18.6702 11.9809 18.6085 11.9103 18.715C11.8322 18.8324 11.7946 19.033 11.7946 19.1188C11.7946 19.6133 12.3836 19.7129 12.6084 19.6083C13.2588 20.2376 14.5362 20.0697 14.9641 19.8586L12.7148 13.6871C12.6688 13.5706 12.504 13.6263 12.5444 13.7475L12.5443 13.7475ZM12.4662 18.8311C12.4198 18.577 12.7733 18.1229 13.2229 17.6847C13.1272 17.9702 13.1867 18.4623 13.3744 18.6319C13.0482 18.6319 12.6608 18.6931 12.4663 18.8311H12.4662Z" fill="#D9D9D9"/>
</svg>
