<svg width="28" height="28" viewBox="0 0 28 28" fill="none" xmlns="http://www.w3.org/2000/svg">
<path fill-rule="evenodd" clip-rule="evenodd" d="M12.0984 8.16633C15.4806 4.36718 20.8238 1.91809 25.5089 2.00209C25.7759 2.00909 25.9909 2.2241 25.9979 2.49011C26.1069 7.16929 23.6379 12.5105 19.8347 15.8996C19.7737 19.1317 18.4487 22.2789 16.1636 24.5639C16.0636 24.6629 15.9186 24.7249 15.7766 24.7249C15.7276 24.7249 15.6796 24.7179 15.6336 24.7029C15.4546 24.6429 15.3066 24.5049 15.2795 24.3169L14.7275 20.4628L14.1945 20.9388C14.0995 21.0238 13.9805 21.0658 13.8615 21.0658C13.7325 21.0658 13.6045 21.0168 13.5075 20.9198L7.08025 14.4926C6.89224 14.3046 6.88324 14.0035 7.06025 13.8055L7.53627 13.2725L3.68212 12.7205C3.49412 12.6935 3.33811 12.5625 3.27811 12.3815C3.21911 12.2015 3.26711 12.0025 3.40211 11.8695C5.7192 9.55238 8.86631 8.22733 12.0984 8.16633ZM19.1327 11.3654C19.7737 11.3654 20.4137 11.1214 20.9008 10.6344C21.8758 9.66038 21.8758 8.07332 20.9008 7.09829C19.9257 6.12325 18.3397 6.12325 17.3646 7.09829C16.3906 8.07332 16.3906 9.65938 17.3646 10.6344C17.8516 11.1214 18.4917 11.3654 19.1327 11.3654ZM2.02106 25.356C2.18506 24.809 3.65412 19.9748 4.72416 18.9047C5.92921 17.7007 7.88928 17.6997 9.09532 18.9047C10.3004 20.1098 10.3004 22.0708 9.09532 23.2759C8.02528 24.3459 3.1911 25.815 2.64408 25.979C2.59608 25.993 2.54808 26 2.50008 26C2.36907 26 2.24207 25.949 2.14606 25.853C2.01706 25.723 1.96806 25.532 2.02106 25.356Z" fill="#D9D9D9"/>
</svg>
