<svg width="28" height="28" viewBox="0 0 28 28" fill="none" xmlns="http://www.w3.org/2000/svg">
<path d="M27.973 10.8111C27.935 9.64112 28.103 7.65512 26.915 6.36712C26.246 5.71712 25.367 5.02712 24.257 5.01512C24.167 5.01512 24.073 5.01812 23.98 5.02512C23.9881 4.93202 23.9918 4.83858 23.991 4.74512C23.986 3.62012 23.341 2.90012 22.593 2.15112C21.54 1.06912 20.186 1.00612 19.027 1.02512L18.858 1.02612L18.856 1.00012L15.055 1.14112L18.455 4.96312L18.998 4.93412L18.918 2.72712L19.026 2.72612C20.163 2.74612 20.885 2.91512 21.417 3.44612C21.948 3.97812 22.214 4.54112 22.214 5.11612C22.214 5.35912 22.156 5.54512 22.067 5.71712C21.9278 5.71479 21.7896 5.74071 21.6607 5.7933C21.5317 5.84589 21.4148 5.92408 21.317 6.02312L14.045 13.2931L5.635 4.88212C6.129 4.33612 6.546 3.84212 6.908 3.48312C7.457 2.94212 7.802 2.75812 8.148 2.75912C8.616 2.76612 8.946 2.94012 9.43 3.37112C9.901 3.79712 10.427 4.45912 11.118 5.15412L11.495 4.77812L12.931 6.27112V1.11912L10.73 2.27112C10.678 2.22112 10.632 2.16412 10.58 2.11612C9.974 1.55212 9.167 1.05512 8.15 1.06112C7.113 1.06312 6.339 1.64612 5.71 2.27912C5.477 2.51112 5.249 2.76312 5.019 3.02212H2.085V6.05212C1.818 6.28912 1.558 6.52412 1.319 6.76212C0.688 7.39212 0.103 8.16412 0.1 9.20312C0.091 10.2181 0.592 11.0251 1.155 11.6321C1.165 11.6431 1.176 11.6521 1.186 11.6611L0 13.9241H5.152L3.771 12.5961L4.195 12.1731H4.193C3.5 11.4821 2.836 10.9551 2.411 10.4841C1.978 9.99912 1.808 9.67112 1.801 9.20312C1.798 8.85712 1.98 8.51112 2.523 7.96112C2.903 7.57812 3.431 7.13812 4.013 6.60612L12.371 14.9641L7.384 19.9511L7.441 20.7201C6.8828 20.3384 6.22221 20.1345 5.546 20.1351C4.64929 20.1375 3.79021 20.4958 3.15755 21.1313C2.52489 21.7668 2.17041 22.6274 2.172 23.5241C2.16987 24.4215 2.52403 25.2829 3.15666 25.9193C3.7893 26.5557 4.64867 26.9149 5.546 26.9181C6.16359 26.9164 6.76895 26.7458 7.29659 26.4248C7.82423 26.1039 8.25407 25.6447 8.53962 25.0971C8.82516 24.5495 8.95555 23.9342 8.91666 23.3179C8.87778 22.7015 8.6711 22.1075 8.319 21.6001L8.839 21.7821L14.014 16.6061L16.716 19.3081C15.726 20.5731 15.197 22.0231 15.219 23.8951H16.953C16.978 22.0441 17.358 20.7951 18.343 19.6821L18.49 20.6161L19.588 21.9261C19.3184 22.4162 19.1751 22.9658 19.171 23.5251C19.1689 24.4225 19.523 25.2839 20.1557 25.9203C20.7883 26.5567 21.6477 26.9159 22.545 26.9191C23.4424 26.9159 24.3019 26.5567 24.9347 25.9204C25.5675 25.284 25.9219 24.4225 25.92 23.5251C25.9213 22.6283 25.5666 21.7677 24.9338 21.1322C24.301 20.4968 23.4418 20.1385 22.545 20.1361C22.001 20.1361 21.495 20.2781 21.041 20.5061L19.945 19.4101L18.779 19.2961L18.815 19.2031C19.936 18.1821 21.126 17.8791 22.969 17.8521V16.1171C21.094 16.0931 19.654 16.6191 18.383 17.6321L15.686 14.9351L22.956 7.66512C23.166 7.45412 23.276 7.23612 23.314 7.02612C23.476 6.97412 23.695 6.95012 24.053 6.95012C24.937 6.95012 25.683 7.70712 25.683 7.70712C26.069 8.01212 26.239 9.13012 26.269 10.1221L24.055 10.1031V10.7351L27.899 13.9241V11.3641H27.971C27.973 11.2151 27.973 11.0251 27.973 10.8111ZM5.546 25.3761C5.05827 25.3703 4.59242 25.1728 4.24921 24.8262C3.906 24.4796 3.71302 24.0119 3.712 23.5241H3.715C3.71498 23.037 3.90738 22.5696 4.2503 22.2237C4.59323 21.8778 5.05892 21.6813 5.546 21.6771C6.02907 21.6884 6.48858 21.8881 6.82626 22.2338C7.16394 22.5794 7.35299 23.0434 7.35299 23.5266C7.35299 24.0098 7.16394 24.4738 6.82626 24.8195C6.48858 25.1651 6.02907 25.3649 5.546 25.3761ZM24.378 23.5241C24.3785 24.012 24.1863 24.4804 23.8432 24.8272C23.5001 25.1741 23.0339 25.3714 22.546 25.3761C22.0583 25.3703 21.5924 25.1728 21.2492 24.8262C20.906 24.4796 20.713 24.0119 20.712 23.5241H20.715C20.715 23.037 20.9074 22.5696 21.2503 22.2237C21.5932 21.8778 22.0589 21.6813 22.546 21.6771C23.033 21.6819 23.4985 21.8784 23.8415 22.2242C24.1844 22.57 24.3772 23.0371 24.378 23.5241Z" fill="#D9D9D9"/>
</svg>
