<svg width="28" height="28" viewBox="0 0 28 28" fill="none" xmlns="http://www.w3.org/2000/svg">
<path d="M2.062 10.455C2.062 5.849 6.26 4.158 8.446 3.459C14.674 1.469 25.571 0 25.571 0L26.031 0.736C26.031 0.736 19.907 4.583 19.907 8.728C19.907 13.939 22.117 16.328 22.117 16.328L21.441 17.031C21.441 17.031 17.496 13.816 11.099 13.816C9.128 13.816 8.812 14.518 8.812 15.29C8.812 16.346 10.182 17.638 10.182 17.638L9.624 18.268C9.625 18.268 2.062 15.059 2.062 10.455ZM14.05 21.184C8.523 21.184 7.532 19.954 7.532 19.954L1.344 16.674L1 18.002L5.99 20.863V22.595C5.99 23.793 8.194 27.984 13.536 27.984C18.989 27.984 19.078 25.923 20.375 25.923C21.672 25.923 23.875 26.954 23.875 26.954L23.882 24.54L21.798 23.341L24.889 21.223V19.183H19.254C19.254 19.184 19.575 21.184 14.05 21.184Z" fill="#D9D9D9"/>
</svg>
