<svg width="28" height="28" viewBox="0 0 28 28" fill="none" xmlns="http://www.w3.org/2000/svg">
<g clip-path="url(#clip0_3547_3996)">
<path fill-rule="evenodd" clip-rule="evenodd" d="M5.67389 1.64072H4.90751C4.45448 1.64072 4.0872 1.27344 4.0872 0.820306C4.0872 0.367278 4.45448 0 4.90751 0H23.0936C23.5467 0 23.9139 0.367278 23.9139 0.820306C23.9139 1.27333 23.5467 1.64061 23.0936 1.64061H22.2821C22.1489 2.1439 22.0603 3.30266 21.9871 4.26154C21.8131 6.54063 21.5748 9.66189 20.5604 12.2187C19.2882 15.4255 17.079 17.0515 13.9943 17.0515C10.8829 17.0515 8.65429 15.3994 7.37051 12.1411C6.34868 9.54776 6.11298 6.41124 5.94088 4.12105L5.9408 4.11997C5.87322 3.22108 5.79186 2.13889 5.67389 1.64072ZM13.83 5.13205L12.675 5.83205C12.5 5.93705 12.4212 6.11205 12.4212 6.29579C12.4212 6.56704 12.5962 6.83829 12.85 6.83829C12.9112 6.83829 12.99 6.82079 13.0687 6.76829L13.3225 6.61079V11.0646C13.3225 11.3446 13.6638 11.4846 14.005 11.4846C14.3463 11.4846 14.6875 11.3446 14.6875 11.0646V5.49955C14.6875 5.23705 14.3638 5.0708 14.0838 5.0708C13.9875 5.0708 13.9 5.0883 13.83 5.13205ZM5.19971 10.7186C3.40215 9.09987 2.40362 7.1617 2.22315 4.93627H4.3577C4.3391 4.69843 4.32171 4.46722 4.30492 4.24376C4.28463 3.97377 4.25899 3.63313 4.23006 3.29565H1.37304C0.920013 3.29565 0.552734 3.66293 0.552734 4.11596V4.1899C0.552734 7.68555 2.13346 10.6045 5.25106 12.8658L6.19283 13.5488C6.0717 13.2922 5.95516 13.0239 5.8442 12.7423C5.58586 12.0868 5.37471 11.4065 5.19971 10.7186ZM23.7117 3.2959H26.6282C27.0813 3.2959 27.4485 3.66312 27.4485 4.11615V4.18413C27.4485 7.6841 25.865 10.6051 22.742 12.866L21.7578 13.5784C21.8727 13.335 21.9822 13.0838 22.0854 12.8237C22.3491 12.1593 22.5636 11.4676 22.7405 10.7675C24.575 9.13981 25.5939 7.18535 25.7776 4.93651H23.5806C23.5954 4.74877 23.6095 4.56491 23.6231 4.38652C23.6456 4.09198 23.6764 3.68883 23.7117 3.2959ZM17.2141 20.734H16.6352C16.4517 20.2431 16.3245 19.4427 16.3131 18.406C15.5882 18.5957 14.8143 18.6919 13.9944 18.6919C13.279 18.6919 12.4969 18.6163 11.6981 18.4096C11.6956 18.8942 11.6676 19.4292 11.5865 19.9237C11.5406 20.2035 11.4706 20.4936 11.3785 20.7339H10.7871C9.73169 20.7339 8.87305 21.5926 8.87305 22.648V23.078H19.1281V22.648C19.1282 21.5926 18.2695 20.734 17.2141 20.734ZM20.8561 24.7188H7.14515C6.69212 24.7188 6.32484 25.086 6.32484 25.5391V27.1797C6.32484 27.6327 6.69212 28 7.14515 28H20.8561C21.3092 28 21.6764 27.6327 21.6764 27.1797V25.5391C21.6764 25.086 21.3092 24.7188 20.8561 24.7188Z" fill="#D9D9D9"/>
</g>
<defs>
<clipPath id="clip0_3547_3996">
<rect width="28" height="28" fill="white"/>
</clipPath>
</defs>
</svg>
